<svg version="1.1" alt="Index Digital" id="logo" xmlns="http://www.w3.org/2000/svg" xmlns:xlink="http://www.w3.org/1999/xlink"
  x="0px" y="0px" viewBox="0 0 126 47" style="enable-background:new 0 0 126 47;" xml:space="preserve">
  <style type="text/css">
    .st0 {
      fill: #FFFFFF;
    }
  </style>
  <g>
    <g>
      <path class="st0" d="M2.6,5.8c-0.7,0-1.3,0.3-1.8,0.8C0.3,7.2,0,7.8,0,8.5c0,0.7,0.2,1.3,0.7,1.9c0.5,0.5,1.1,0.8,1.8,0.8 c0.8,0,1.4-0.3,1.9-0.8c0.5-0.5,0.7-1.2,0.7-1.9c0-0.7-0.2-1.3-0.7-1.9C3.9,6.1,3.3,5.8,2.6,5.8z M1,45.7h3.1V15.6H1V45.7z M35.9,42.2c-0.3-1-0.5-1.9-0.5-2.7V28.6c0-2.1-0.2-3.9-0.7-5.4c-0.5-1.5-1.1-2.7-1.8-3.8c-0.7-1-1.5-1.8-2.4-2.5 c-0.9-0.6-1.8-1.1-2.6-1.4c-0.9-0.3-1.7-0.5-2.5-0.6c-0.8-0.1-1.4-0.2-1.8-0.2c-1.4,0-2.7,0.2-3.9,0.5c-1.2,0.4-2.3,0.8-3.3,1.5 c-1,0.6-1.9,1.3-2.6,2.2c-0.8,0.8-1.4,1.7-1.8,2.6h-0.1l-0.3-6H8.6c0.1,1.2,0.1,2.4,0.2,3.6c0,1.2,0.1,2.4,0.1,3.6v22.9H12V27.3 c0-0.5,0.1-0.9,0.2-1.4c0.1-0.5,0.2-0.9,0.3-1.3c0.3-1,0.8-1.9,1.5-2.7c0.7-0.9,1.5-1.6,2.3-2.3c0.9-0.7,1.9-1.2,3-1.6 c1.1-0.4,2.2-0.6,3.5-0.6c1.7,0,3.2,0.3,4.4,0.9c1.2,0.6,2.2,1.4,3,2.5c0.8,1,1.3,2.2,1.6,3.5c0.3,1.3,0.5,2.7,0.5,4.2v10.9 c0,1.4,0.2,2.7,0.5,3.9c0.3,1.2,0.6,2.1,0.9,2.6c0.3,0.6,0.4,0.9,0.5,1l3.1-1.3c0-0.1-0.2-0.4-0.5-1.1 C36.5,44,36.2,43.2,35.9,42.2z M66.3,17.7c-0.7-1.5-1.6-2.9-2.6-4.2c-1-1.3-2.1-2.6-3.3-3.8C59.9,9,59.3,8.5,58.7,8 c-0.6-0.5-1.2-1-1.8-1.4l-2.2-1.6c-1.3-1-2.8-1.9-4.4-2.7c-1.6-0.8-3.2-1.5-4.8-2.2l-1.3,2.5C45.6,3,47,3.6,48.3,4.2 c1.4,0.6,2.6,1.3,3.6,2l2.3,1.6c2.4,1.6,4.4,3.3,6,5.2c1.6,1.9,3,3.9,4.2,5.9l-0.1,0.2c-1.8-1.8-3.6-3-5.3-3.5 c-1.7-0.6-3.5-0.8-5.3-0.8c-1.9,0-3.8,0.4-5.6,1.1c-1.8,0.8-3.5,1.8-4.9,3.2c-1.4,1.4-2.6,3.1-3.5,5.1c-0.9,2-1.3,4.3-1.3,6.8 c0,2.2,0.4,4.3,1.1,6.1c0.7,1.9,1.8,3.5,3.1,4.9c1.3,1.4,2.9,2.5,4.8,3.2c1.9,0.8,3.9,1.2,6.1,1.2c1.9,0,3.8-0.3,5.6-0.9 c1.8-0.6,3.5-1.6,5-3c1.5-1.3,2.7-3.1,3.6-5.2c0.9-2.1,1.4-4.6,1.4-7.6c0-2.3-0.2-4.4-0.7-6.4C67.9,21.4,67.2,19.5,66.3,17.7z M64.9,36.2c-0.7,1.7-1.5,3.2-2.7,4.3c-1.1,1.2-2.5,2-4,2.6c-1.5,0.6-3.2,0.9-4.9,0.9c-1.5,0-3-0.3-4.4-0.9 c-1.4-0.6-2.7-1.4-3.8-2.5c-1.1-1.1-2-2.4-2.7-4.1c-0.7-1.6-1-3.5-1-5.6c0-1.6,0.2-3.1,0.7-4.7c0.5-1.6,1.2-3.1,2.2-4.4 c1-1.3,2.3-2.4,3.8-3.2c1.6-0.8,3.4-1.3,5.5-1.3c2.2,0,4,0.4,5.5,1.1c1.5,0.8,2.7,1.6,3.7,2.5c1.1,1.1,1.9,2.3,2.4,3.7 c0.5,1.4,0.7,3.2,0.7,5.6C65.9,32.5,65.6,34.5,64.9,36.2z M87.4,43.9c-1.8,0-3.5-0.3-5-0.8c-1.6-0.5-2.9-1.4-4.1-2.5 c-1.2-1.1-2.1-2.5-2.7-4.1c-0.7-1.6-1-3.6-1-5.8h25.2c0.1-0.3,0.1-0.5,0.1-0.8c0-0.3,0-0.7,0-1.1c0-1-0.2-2.3-0.5-3.9 c-0.3-1.6-0.9-3.1-1.9-4.6c-0.9-1.5-2.3-2.8-4-3.9c-1.7-1.1-4-1.6-6.8-1.6c-2.1,0-4.1,0.4-6,1.2c-1.9,0.8-3.4,1.9-4.8,3.3 c-1.3,1.4-2.4,3.2-3.2,5.2c-0.8,2.1-1.2,4.4-1.2,6.9c0,2.2,0.4,4.2,1.1,6c0.7,1.8,1.8,3.4,3.1,4.8c1.3,1.3,3,2.4,4.9,3.1 c1.9,0.8,4,1.1,6.4,1.1c0.8,0,1.5,0,2.2-0.1c0.7,0,1.3-0.1,1.9-0.2l-0.3-2.6C89.9,43.8,88.8,43.9,87.4,43.9z M75.8,24.6 c0.5-1.3,1.2-2.5,2.1-3.5c0.9-1.1,2-2,3.4-2.7c1.4-0.7,3-1.1,5-1.1c2.3,0,4.1,0.4,5.5,1.3c1.4,0.8,2.4,1.8,3.2,3 c0.7,1.2,1.2,2.4,1.4,3.6c0.2,1.2,0.3,2.2,0.3,3H74.8C75,27.1,75.3,25.9,75.8,24.6z M113.8,30.2l11.6-14.6H122l-5.8,7.4 c-0.7,0.9-1.4,1.7-2,2.5c-0.6,0.8-1.3,1.7-1.9,2.5h-0.1c-0.6-0.9-1.3-1.7-1.9-2.5c-0.6-0.8-1.3-1.7-2-2.6l-5.8-7.4h-3.5l11.5,14.7 L98.2,45.7h3.6l5.9-7.7c0.8-1.1,1.6-2.1,2.3-3c0.7-0.9,1.4-1.8,2-2.8h0.1c0.7,0.9,1.4,1.9,2.1,2.8c0.7,0.9,1.4,1.9,2.2,2.9 l6.1,7.7h3.6L113.8,30.2z"
      /> </g>
  </g>
</svg>
